<svg version="1.1" id="Layer_1" xmlns="http://www.w3.org/2000/svg" xmlns:xlink="http://www.w3.org/1999/xlink" x="0px" y="0px"
	 width="100%" viewBox="0 0 500 500" enable-background="new 0 0 500 500" xml:space="preserve">
<path fill="#000000" opacity="1.000000" stroke="none" 
	d="
M232.000000,501.000000 
	C154.666687,501.000000 77.833366,501.000000 1.000041,501.000000 
	C1.000027,334.333405 1.000027,167.666779 1.000014,1.000131 
	C167.666565,1.000087 334.333130,1.000087 500.999756,1.000044 
	C500.999847,167.666519 500.999847,334.333038 500.999939,500.999786 
	C411.500000,501.000000 322.000000,501.000000 232.000000,501.000000 
M205.027344,248.985016 
	C205.027344,248.985016 205.013824,248.964905 204.618362,249.716797 
	C199.072556,249.462097 193.526749,249.207382 187.988556,249.011230 
	C187.988556,249.011230 188.045898,248.997253 187.644485,248.267456 
	C185.398315,248.227982 183.152130,248.188507 180.185135,247.892242 
	C178.175308,247.597809 176.165482,247.303375 173.777161,246.350601 
	C171.636322,244.198990 169.495499,242.047394 166.666656,239.204315 
	C164.432800,239.790405 160.853119,240.729630 156.429153,241.890366 
	C157.455383,243.520401 158.225006,244.742859 159.010345,246.906860 
	C158.985535,256.299377 158.960724,265.691864 158.350800,275.494324 
	C155.580963,278.219025 156.892609,279.846039 159.921600,280.687408 
	C162.135818,281.302490 164.466400,281.487640 166.733032,281.926758 
	C195.389465,287.478180 224.017593,293.182129 252.718796,298.491058 
	C259.067322,299.665344 266.395447,301.506989 272.033905,299.522400 
	C296.144348,291.036224 319.673431,280.912567 343.673615,272.090912 
	C351.624786,269.168304 353.478424,263.606079 353.798706,256.609497 
	C353.970306,252.860962 353.200073,249.074677 352.977844,245.298187 
	C352.934296,244.557587 353.455719,243.783752 354.406830,242.845337 
	C354.725403,241.502808 355.360077,240.139343 355.272888,238.823700 
	C355.187042,237.528290 353.952881,236.285492 353.940277,235.012497 
	C353.854614,226.350906 353.958649,217.687408 354.603058,208.893570 
	C356.853912,207.513214 357.080322,206.295258 354.283264,205.400696 
	C349.762085,203.954742 345.230377,202.541580 340.447296,200.551636 
	C339.627533,200.481659 338.807800,200.411682 337.865692,200.219345 
	C337.865692,200.219345 337.697479,200.178650 337.730835,199.376129 
	C342.065247,197.245972 346.457611,195.222916 350.702026,192.926453 
	C352.149872,192.143082 353.804688,190.905594 354.379120,189.478729 
	C358.499115,179.244675 357.302765,169.389145 351.351288,160.196671 
	C350.429291,158.772552 348.537354,157.482590 346.876190,157.115128 
	C339.148193,155.405563 331.359070,153.954651 323.562683,152.576111 
	C312.672943,150.650620 301.757355,148.871628 290.331146,146.491287 
	C281.764679,144.874969 273.232513,143.036057 264.621368,141.709946 
	C257.195953,140.566422 249.986893,137.844940 242.109436,140.263504 
	C218.395554,147.544174 194.545975,154.382324 170.760925,161.432251 
	C166.879700,162.582642 163.057434,163.931931 158.323364,165.478210 
	C159.995804,167.062164 161.012299,168.024872 162.000427,169.926086 
	C161.957458,179.337936 161.914505,188.749771 161.357224,198.519867 
	C159.921173,199.257568 158.485138,199.995285 156.754303,200.884430 
	C159.395599,203.193542 160.425400,204.093811 161.181915,205.724182 
	C160.472504,208.102234 159.624466,210.448914 159.077820,212.863815 
	C156.762848,223.090515 160.550095,230.567215 169.973221,234.516327 
	C172.263290,235.476059 174.594757,236.336563 176.899460,237.262009 
	C185.926895,240.886887 194.951233,244.519485 204.142258,248.628830 
	C204.441925,248.754181 204.741577,248.879517 205.027344,248.985016 
M215.525803,368.900452 
	C215.525803,366.177673 215.525803,363.454895 215.525803,360.639679 
	C210.278763,359.072540 206.492645,361.305878 203.033066,365.349396 
	C202.489380,363.741638 202.045822,362.430023 201.627853,361.194061 
	C198.858948,361.194061 196.388611,361.194061 193.673523,361.194061 
	C193.673523,372.115601 193.673523,382.872864 193.673523,393.697571 
	C197.122559,393.697571 200.344864,393.697571 203.844009,393.697571 
	C203.844009,387.906219 203.771698,382.431274 203.866486,376.959198 
	C203.944901,372.432373 207.004761,369.206818 211.146027,369.027374 
	C212.936188,368.949829 214.726059,368.865997 216.365326,369.646423 
	C215.918350,372.412109 215.124222,375.173340 215.088593,377.944305 
	C214.975601,386.737457 220.409561,393.555756 228.203232,394.816040 
	C236.673416,396.185730 243.802078,391.707947 246.630920,383.240875 
	C249.270645,375.339813 245.714188,365.737701 238.806046,362.114471 
	C230.768692,357.899017 223.310532,360.107727 215.525803,368.900452 
M296.500031,324.102264 
	C227.062546,324.102264 157.625046,324.102264 87.865974,324.102264 
	C88.024345,326.303650 88.137497,327.876495 88.249886,329.438721 
	C204.397446,329.438721 320.140472,329.438721 436.157288,329.438721 
	C436.157288,327.594025 436.157288,326.027954 436.157288,324.102264 
	C389.760376,324.102264 343.630219,324.102264 296.500031,324.102264 
M160.898010,354.337738 
	C151.948410,362.799500 150.290970,376.613190 157.033417,386.546692 
	C162.718506,394.922424 174.548691,397.641937 184.565689,392.617828 
	C186.290771,391.752625 188.568054,389.860535 188.687820,388.297089 
	C189.162949,382.093628 188.883224,375.832336 188.883224,369.676941 
	C183.102249,369.676941 178.046402,369.676941 172.891983,369.676941 
	C172.891983,372.593048 172.891983,375.150391 172.891983,377.701813 
	C175.328766,377.876923 177.433884,378.028229 179.401520,378.169647 
	C181.792892,386.549408 177.032974,387.198578 171.459839,385.379883 
	C169.181244,384.636353 166.834930,382.681122 165.535568,380.632568 
	C162.164215,375.317352 163.227264,366.054230 167.145828,361.939667 
	C171.030579,357.860626 175.336472,357.796967 183.126602,361.834564 
	C184.726547,359.859283 186.361359,357.840973 187.975784,355.847870 
	C180.592896,348.370300 170.632935,347.754059 160.898010,354.337738 
M286.878418,406.505310 
	C289.621490,406.505310 292.364532,406.505310 295.521606,406.505310 
	C295.521606,401.517365 295.521606,397.295532 295.521606,392.913452 
	C304.359436,396.465179 310.131317,394.818817 314.128479,387.625824 
	C317.003662,382.451874 317.197205,376.881653 315.901367,371.172119 
	C313.710266,361.517975 305.882935,357.687286 297.031708,361.986267 
	C296.187378,362.396362 295.166199,363.102234 294.410522,362.918091 
	C291.510742,362.211517 288.685699,361.198120 285.156769,360.086182 
	C285.156769,376.073395 285.150513,390.668915 285.191986,405.264282 
	C285.193024,405.638611 285.717255,406.011444 286.878418,406.505310 
M355.638245,352.612183 
	C351.651276,351.752930 347.683685,350.300598 343.672882,350.169403 
	C337.190155,349.957275 331.282654,354.632324 330.165466,359.908081 
	C328.732483,366.675018 331.577820,371.731415 338.662445,374.936981 
	C341.678741,376.301697 344.851440,377.385742 347.689880,379.046997 
	C348.858246,379.730774 350.110535,381.735504 349.907745,382.890656 
	C349.700165,384.072845 347.845642,385.643005 346.554962,385.806976 
	C344.349335,386.087158 341.926239,385.707214 339.771332,385.036530 
	C337.651520,384.376801 335.751526,383.010803 333.582733,381.863556 
	C331.680847,384.201477 329.954620,386.323486 328.121826,388.576477 
	C334.818298,394.729095 342.353394,396.257050 350.567291,394.229553 
	C356.380035,392.794739 360.854675,387.009491 361.015198,381.629974 
	C361.171417,376.392731 357.678284,371.712402 351.828339,369.303436 
	C348.773743,368.045532 345.602722,366.992889 342.734711,365.397369 
	C341.581360,364.755707 340.250183,362.667480 340.531952,361.670807 
	C340.865112,360.492462 342.932709,358.924164 344.112030,359.030945 
	C347.606384,359.347382 351.033630,360.404663 355.066254,361.300964 
	C356.247650,359.841797 357.890198,357.813080 359.707153,355.568970 
	C358.333618,354.555511 357.280914,353.778748 355.638245,352.612183 
M260.276764,363.064056 
	C257.624420,358.444366 253.671646,362.301361 250.049088,360.894867 
	C250.049088,363.177643 250.041687,364.807251 250.050385,366.436798 
	C250.083237,372.594849 249.786133,378.777496 250.236572,384.905090 
	C250.900635,393.938934 259.165527,397.901245 266.898193,393.186157 
	C267.879517,392.587769 268.805267,391.898132 269.756744,391.250763 
	C269.709747,391.737366 269.662720,392.223969 269.615692,392.710602 
	C272.888184,393.261627 276.160706,393.812683 279.523071,394.378845 
	C279.523071,382.636047 279.523071,371.915161 279.523071,361.306702 
	C276.070068,361.306702 272.976013,361.306702 269.541260,361.306702 
	C269.541260,367.879150 269.489349,374.183350 269.560669,380.486176 
	C269.603760,384.291473 267.484436,385.983978 264.052002,386.104492 
	C260.087646,386.243713 260.199371,382.902161 260.120148,380.427826 
	C259.944733,374.950104 260.202637,369.458527 260.276764,363.064056 
z"/>
<path fill="#49AC96" opacity="1.000000" stroke="none" 
	d="
M290.852814,147.029938 
	C301.757355,148.871628 312.672943,150.650620 323.562683,152.576111 
	C331.359070,153.954651 339.148193,155.405563 346.876190,157.115128 
	C348.537354,157.482590 350.429291,158.772552 351.351288,160.196671 
	C357.302765,169.389145 358.499115,179.244675 354.379120,189.478729 
	C353.804688,190.905594 352.149872,192.143082 350.702026,192.926453 
	C346.457611,195.222916 342.065247,197.245972 337.372925,199.767548 
	C334.756195,200.361801 332.333649,200.107758 330.267365,200.848068 
	C322.130768,203.763306 314.067627,206.895584 306.050385,210.128769 
	C297.313690,213.652100 288.658142,217.376587 279.994415,221.016571 
	C280.021637,221.019775 280.034729,220.966324 279.738892,220.939178 
	C278.759491,221.212204 278.075867,221.512360 276.985840,221.894318 
	C273.605560,222.530670 270.631683,223.085251 267.366089,223.473434 
	C256.850372,221.324066 246.636887,219.284897 236.399780,217.372025 
	C222.918411,214.852936 209.418472,212.433136 195.551865,209.880920 
	C185.484161,207.899597 175.791092,206.008011 165.804047,204.000061 
	C164.158447,204.253815 162.806824,204.623962 161.455200,204.994110 
	C160.425400,204.093811 159.395599,203.193542 156.754303,200.884430 
	C158.485138,199.995285 159.921173,199.257568 161.859085,198.624664 
	C163.312057,199.025894 164.244400,199.423325 165.217010,199.604095 
	C199.205566,205.921326 233.190063,212.261826 267.217682,218.361755 
	C268.611237,218.611588 271.142822,216.961777 271.906586,215.534668 
	C276.031830,207.826385 275.248566,199.889343 272.449249,191.871124 
	C271.054108,187.875092 268.858643,185.819550 264.459595,185.125107 
	C230.977264,179.839630 197.534195,174.305496 164.375183,168.610931 
	C174.138718,166.846390 183.618088,165.390747 193.071045,163.780151 
	C225.669937,158.225952 258.259613,152.617645 290.852814,147.029938 
M298.599426,210.147980 
	C303.525116,209.262390 305.505798,205.700195 305.834106,201.306564 
	C306.188110,196.569260 306.468109,191.688126 305.731903,187.035675 
	C304.062805,176.487885 303.068115,176.094055 293.073792,179.414383 
	C290.394135,180.304626 287.710938,181.184174 285.031219,182.074158 
	C281.663239,183.192734 278.297211,184.317047 274.264404,185.660782 
	C280.864105,196.436783 279.840302,207.032227 275.657654,218.530991 
	C283.910492,215.534302 290.901947,212.995636 298.599426,210.147980 
z"/>
<path fill="#F0F1F1" opacity="1.000000" stroke="none" 
	d="
M164.078888,168.848785 
	C197.534195,174.305496 230.977264,179.839630 264.459595,185.125107 
	C268.858643,185.819550 271.054108,187.875092 272.449249,191.871124 
	C275.248566,199.889343 276.031830,207.826385 271.906586,215.534668 
	C271.142822,216.961777 268.611237,218.611588 267.217682,218.361755 
	C233.190063,212.261826 199.205566,205.921326 165.217010,199.604095 
	C164.244400,199.423325 163.312057,199.025894 162.116241,198.445557 
	C161.914505,188.749771 161.957458,179.337936 162.356781,169.437103 
	C163.168381,168.915009 163.623642,168.881897 164.078888,168.848785 
z"/>
<path fill="#D9D8D7" opacity="1.000000" stroke="none" 
	d="
M174.155655,247.008942 
	C176.165482,247.303375 178.175308,247.597809 180.874481,248.244186 
	C183.724518,248.729828 185.885208,248.863541 188.045898,248.997253 
	C188.045898,248.997253 187.988556,249.011230 188.237457,249.281006 
	C198.677612,251.041367 208.868881,252.531952 219.023346,254.025940 
	C218.986542,254.029343 218.945419,253.967926 219.131927,254.219818 
	C219.923233,254.602951 220.528061,254.734177 221.505615,254.906097 
	C223.126556,255.355637 224.430023,255.644882 225.614365,256.191986 
	C236.338303,261.145996 247.152740,265.382751 259.492157,261.311859 
	C262.551117,262.678619 266.665100,263.023468 267.889893,265.084869 
	C272.976379,273.645905 273.676941,282.924561 269.714661,292.313141 
	C268.440216,295.332977 266.622131,296.295624 263.098877,295.610901 
	C235.623474,290.270782 208.088791,285.236633 180.597961,279.974457 
	C173.331512,278.583527 166.154175,276.727081 158.935913,275.084381 
	C158.960724,265.691864 158.985535,256.299377 159.446014,246.356567 
	C164.639664,246.207153 169.397659,246.608047 174.155655,247.008942 
z"/>
<path fill="#5C82B8" opacity="1.000000" stroke="none" 
	d="
M158.643356,275.289368 
	C166.154175,276.727081 173.331512,278.583527 180.597961,279.974457 
	C208.088791,285.236633 235.623474,290.270782 263.098877,295.610901 
	C266.622131,296.295624 268.440216,295.332977 269.714661,292.313141 
	C273.676941,282.924561 272.976379,273.645905 267.889893,265.084869 
	C266.665100,263.023468 262.551117,262.678619 259.864746,261.227722 
	C271.102295,258.864624 282.240906,256.818176 293.113281,255.061127 
	C287.517944,257.365387 282.193451,259.392395 276.858002,261.390259 
	C273.973083,262.470520 273.381409,264.201477 274.338867,267.210754 
	C275.761230,271.681335 276.601379,276.337158 277.340668,281.044586 
	C275.862457,285.677551 274.732910,290.180054 273.379639,295.574341 
	C282.576050,291.936035 290.926788,288.776764 299.117676,285.246674 
	C300.449524,284.672668 301.515900,282.578003 301.952881,280.980530 
	C304.573303,271.400848 302.720276,262.266174 299.111389,253.275635 
	C317.554810,249.767944 335.635681,246.396591 353.716553,243.025238 
	C353.455719,243.783752 352.934296,244.557587 352.977844,245.298187 
	C353.200073,249.074677 353.970306,252.860962 353.798706,256.609497 
	C353.478424,263.606079 351.624786,269.168304 343.673615,272.090912 
	C319.673431,280.912567 296.144348,291.036224 272.033905,299.522400 
	C266.395447,301.506989 259.067322,299.665344 252.718796,298.491058 
	C224.017593,293.182129 195.389465,287.478180 166.733032,281.926758 
	C164.466400,281.487640 162.135818,281.302490 159.921600,280.687408 
	C156.892609,279.846039 155.580963,278.219025 158.643356,275.289368 
z"/>
<path fill="#CDD2DA" opacity="1.000000" stroke="none" 
	d="
M297.000061,324.102264 
	C343.630219,324.102264 389.760376,324.102264 436.157288,324.102264 
	C436.157288,326.027954 436.157288,327.594025 436.157288,329.438721 
	C320.140472,329.438721 204.397446,329.438721 88.249886,329.438721 
	C88.137497,327.876495 88.024345,326.303650 87.865974,324.102264 
	C157.625046,324.102264 227.062546,324.102264 297.000061,324.102264 
z"/>
<path fill="#5FB6A5" opacity="1.000000" stroke="none" 
	d="
M164.375183,168.610916 
	C163.623642,168.881897 163.168381,168.915009 162.370972,168.967865 
	C161.012299,168.024872 159.995804,167.062164 158.323364,165.478210 
	C163.057434,163.931931 166.879700,162.582642 170.760925,161.432251 
	C194.545975,154.382324 218.395554,147.544174 242.109436,140.263504 
	C249.986893,137.844940 257.195953,140.566422 264.621368,141.709946 
	C273.232513,143.036057 281.764679,144.874969 290.591980,146.760620 
	C258.259613,152.617645 225.669937,158.225952 193.071045,163.780151 
	C183.618088,165.390747 174.138718,166.846390 164.375183,168.610916 
z"/>
<path fill="#E1E6E9" opacity="1.000000" stroke="none" 
	d="
M161.227112,354.178955 
	C170.632935,347.754059 180.592896,348.370300 187.975784,355.847870 
	C186.361359,357.840973 184.726547,359.859283 183.126602,361.834564 
	C175.336472,357.796967 171.030579,357.860626 167.145828,361.939667 
	C163.227264,366.054230 162.164215,375.317352 165.535568,380.632568 
	C166.834930,382.681122 169.181244,384.636353 171.459839,385.379883 
	C177.032974,387.198578 181.792892,386.549408 179.401520,378.169647 
	C177.433884,378.028229 175.328766,377.876923 172.891983,377.701813 
	C172.891983,375.150391 172.891983,372.593048 172.891983,369.676941 
	C178.046402,369.676941 183.102249,369.676941 188.883224,369.676941 
	C188.883224,375.832336 189.162949,382.093628 188.687820,388.297089 
	C188.568054,389.860535 186.290771,391.752625 184.565689,392.617828 
	C174.548691,397.641937 162.718506,394.922424 157.033417,386.546692 
	C150.290970,376.613190 151.948410,362.799500 161.227112,354.178955 
z"/>
<path fill="#E3E7EA" opacity="1.000000" stroke="none" 
	d="
M286.437988,406.445129 
	C285.717255,406.011444 285.193024,405.638611 285.191986,405.264282 
	C285.150513,390.668915 285.156769,376.073395 285.156769,360.086182 
	C288.685699,361.198120 291.510742,362.211517 294.410522,362.918091 
	C295.166199,363.102234 296.187378,362.396362 297.031708,361.986267 
	C305.882935,357.687286 313.710266,361.517975 315.901367,371.172119 
	C317.197205,376.881653 317.003662,382.451874 314.128479,387.625824 
	C310.131317,394.818817 304.359436,396.465179 295.521606,392.913452 
	C295.521606,397.295532 295.521606,401.517365 295.521606,406.505310 
	C292.364532,406.505310 289.621490,406.505310 286.437988,406.445129 
M303.741089,385.068298 
	C306.743866,381.101807 306.857574,376.563202 305.107849,372.341522 
	C304.420593,370.683350 301.414642,369.027832 299.551636,369.120453 
	C298.078186,369.193695 296.169586,371.730621 295.494629,373.557800 
	C294.791687,375.460663 295.333069,377.824402 295.335999,379.986603 
	C295.344604,386.270569 296.820557,387.324646 303.741089,385.068298 
z"/>
<path fill="#E2B054" opacity="1.000000" stroke="none" 
	d="
M354.061707,242.935287 
	C335.635681,246.396591 317.554810,249.767944 298.714874,253.343750 
	C296.413513,253.975723 294.871216,254.403244 293.340149,254.815460 
	C293.351349,254.800140 293.379517,254.771729 293.379517,254.771729 
	C282.240906,256.818176 271.102295,258.864624 259.591064,260.995209 
	C247.152740,265.382751 236.338303,261.145996 225.614365,256.191986 
	C224.430023,255.644882 223.126556,255.355637 221.304443,254.671722 
	C220.135498,254.253738 219.540451,254.110840 218.945419,253.967926 
	C218.945419,253.967926 218.986542,254.029343 218.775604,253.768677 
	C214.047714,251.993652 209.530777,250.479279 205.013824,248.964905 
	C205.013824,248.964905 205.027344,248.985016 205.039871,248.703583 
	C204.693832,248.331161 204.335281,248.240189 203.976715,248.149200 
	C194.951233,244.519485 185.926895,240.886887 176.899460,237.262009 
	C174.594757,236.336563 172.263290,235.476059 169.973221,234.516327 
	C160.550095,230.567215 156.762848,223.090515 159.077820,212.863815 
	C159.624466,210.448914 160.472504,208.102234 161.318558,205.359146 
	C162.806824,204.623962 164.158447,204.253815 165.735306,204.370209 
	C165.150635,207.553558 164.180328,210.214020 163.559509,212.953674 
	C161.275467,223.032883 164.522034,228.910461 173.924606,232.527237 
	C188.187744,238.013672 202.375381,243.696396 216.637207,249.186310 
	C226.061050,252.813934 235.558670,256.249847 245.413773,259.770935 
	C253.771988,258.178741 261.738098,256.579254 269.707672,254.997162 
	C296.219452,249.734177 322.728241,244.455688 349.252594,239.256607 
	C351.554138,238.805481 353.315186,238.519257 353.232941,235.450424 
	C352.997253,226.655243 353.010376,217.853378 353.194336,209.035217 
	C353.642426,209.019043 353.821930,209.021790 354.001434,209.024536 
	C353.958649,217.687408 353.854614,226.350906 353.940277,235.012497 
	C353.952881,236.285492 355.187042,237.528290 355.272888,238.823700 
	C355.360077,240.139343 354.725403,241.502808 354.061707,242.935287 
z"/>
<path fill="#E1E6E9" opacity="1.000000" stroke="none" 
	d="
M355.933228,352.807068 
	C357.280914,353.778748 358.333618,354.555511 359.707153,355.568970 
	C357.890198,357.813080 356.247650,359.841797 355.066254,361.300964 
	C351.033630,360.404663 347.606384,359.347382 344.112030,359.030945 
	C342.932709,358.924164 340.865112,360.492462 340.531952,361.670807 
	C340.250183,362.667480 341.581360,364.755707 342.734711,365.397369 
	C345.602722,366.992889 348.773743,368.045532 351.828339,369.303436 
	C357.678284,371.712402 361.171417,376.392731 361.015198,381.629974 
	C360.854675,387.009491 356.380035,392.794739 350.567291,394.229553 
	C342.353394,396.257050 334.818298,394.729095 328.121826,388.576477 
	C329.954620,386.323486 331.680847,384.201477 333.582733,381.863556 
	C335.751526,383.010803 337.651520,384.376801 339.771332,385.036530 
	C341.926239,385.707214 344.349335,386.087158 346.554962,385.806976 
	C347.845642,385.643005 349.700165,384.072845 349.907745,382.890656 
	C350.110535,381.735504 348.858246,379.730774 347.689880,379.046997 
	C344.851440,377.385742 341.678741,376.301697 338.662445,374.936981 
	C331.577820,371.731415 328.732483,366.675018 330.165466,359.908081 
	C331.282654,354.632324 337.190155,349.957275 343.672882,350.169403 
	C347.683685,350.300598 351.651276,351.752930 355.933228,352.807068 
z"/>
<path fill="#E3E7EA" opacity="1.000000" stroke="none" 
	d="
M260.280273,363.518311 
	C260.202637,369.458527 259.944733,374.950104 260.120148,380.427826 
	C260.199371,382.902161 260.087646,386.243713 264.052002,386.104492 
	C267.484436,385.983978 269.603760,384.291473 269.560669,380.486176 
	C269.489349,374.183350 269.541260,367.879150 269.541260,361.306702 
	C272.976013,361.306702 276.070068,361.306702 279.523071,361.306702 
	C279.523071,371.915161 279.523071,382.636047 279.523071,394.378845 
	C276.160706,393.812683 272.888184,393.261627 269.615692,392.710602 
	C269.662720,392.223969 269.709747,391.737366 269.756744,391.250763 
	C268.805267,391.898132 267.879517,392.587769 266.898193,393.186157 
	C259.165527,397.901245 250.900635,393.938934 250.236572,384.905090 
	C249.786133,378.777496 250.083237,372.594849 250.050385,366.436798 
	C250.041687,364.807251 250.049088,363.177643 250.049088,360.894867 
	C253.671646,362.301361 257.624420,358.444366 260.280273,363.518311 
z"/>
<path fill="#E1E6E9" opacity="1.000000" stroke="none" 
	d="
M216.450424,368.734985 
	C223.310532,360.107727 230.768692,357.899017 238.806046,362.114471 
	C245.714188,365.737701 249.270645,375.339813 246.630920,383.240875 
	C243.802078,391.707947 236.673416,396.185730 228.203232,394.816040 
	C220.409561,393.555756 214.975601,386.737457 215.088593,377.944305 
	C215.124222,375.173340 215.918350,372.412109 216.401703,369.230347 
	C216.438095,368.814240 216.450424,368.734985 216.450424,368.734985 
M235.204208,384.455566 
	C235.496475,380.465973 236.261368,376.424622 235.832825,372.514008 
	C235.676025,371.083221 232.485931,368.757355 231.040466,368.998932 
	C229.138367,369.316864 226.876205,371.467987 226.084335,373.376617 
	C225.201965,375.503387 225.511520,378.277100 225.804825,380.708588 
	C226.487061,386.364227 229.444092,387.722473 235.204208,384.455566 
z"/>
<path fill="#E8B34C" opacity="1.000000" stroke="none" 
	d="
M354.302246,208.959045 
	C353.821930,209.021790 353.642426,209.019043 352.802429,209.086060 
	C338.730347,211.453888 325.329132,213.814896 311.903900,216.030014 
	C301.273651,217.783981 290.613861,219.358932 279.967194,221.013382 
	C288.658142,217.376587 297.313690,213.652100 306.050385,210.128769 
	C314.067627,206.895584 322.130768,203.763306 330.267365,200.848068 
	C332.333649,200.107758 334.756195,200.361801 337.356262,200.168793 
	C337.697479,200.178650 337.865692,200.219345 338.140503,200.475861 
	C339.177917,200.859772 339.940521,200.987183 340.703125,201.114594 
	C345.230377,202.541580 349.762085,203.954742 354.283264,205.400696 
	C357.080322,206.295258 356.853912,207.513214 354.302246,208.959045 
z"/>
<path fill="#E1E6E9" opacity="1.000000" stroke="none" 
	d="
M216.477081,368.799622 
	C214.726059,368.865997 212.936188,368.949829 211.146027,369.027374 
	C207.004761,369.206818 203.944901,372.432373 203.866486,376.959198 
	C203.771698,382.431274 203.844009,387.906219 203.844009,393.697571 
	C200.344864,393.697571 197.122559,393.697571 193.673523,393.697571 
	C193.673523,382.872864 193.673523,372.115601 193.673523,361.194061 
	C196.388611,361.194061 198.858948,361.194061 201.627853,361.194061 
	C202.045822,362.430023 202.489380,363.741638 203.033066,365.349396 
	C206.492645,361.305878 210.278763,359.072540 215.525803,360.639679 
	C215.525803,363.454895 215.525803,366.177673 215.988113,368.817719 
	C216.450424,368.734985 216.438095,368.814240 216.477081,368.799622 
z"/>
<path fill="#5C82B8" opacity="1.000000" stroke="none" 
	d="
M173.966400,246.679779 
	C169.397659,246.608047 164.639664,246.207153 159.438141,245.885803 
	C158.225006,244.742859 157.455383,243.520401 156.429153,241.890366 
	C160.853119,240.729630 164.432800,239.790405 166.666656,239.204315 
	C169.495499,242.047394 171.636322,244.198990 173.966400,246.679779 
z"/>
<path fill="#5C82B8" opacity="1.000000" stroke="none" 
	d="
M204.816101,249.340851 
	C209.530777,250.479279 214.047714,251.993652 218.812408,253.765274 
	C208.868881,252.531952 198.677612,251.041367 188.233643,249.251740 
	C193.526749,249.207382 199.072556,249.462097 204.816101,249.340851 
z"/>
<path fill="#5C82B8" opacity="1.000000" stroke="none" 
	d="
M187.845184,248.632355 
	C185.885208,248.863541 183.724518,248.729828 181.234894,248.372589 
	C183.152130,248.188507 185.398315,248.227982 187.845184,248.632355 
z"/>
<path fill="#49AC96" opacity="1.000000" stroke="none" 
	d="
M340.575195,200.833115 
	C339.940521,200.987183 339.177917,200.859772 338.201660,200.537048 
	C338.807800,200.411682 339.627533,200.481659 340.575195,200.833115 
z"/>
<path fill="#5C82B8" opacity="1.000000" stroke="none" 
	d="
M204.059479,248.389008 
	C204.335281,248.240189 204.693832,248.331161 205.046814,248.713501 
	C204.741577,248.879517 204.441925,248.754181 204.059479,248.389008 
z"/>
<path fill="#F2F1F1" opacity="1.000000" stroke="none" 
	d="
M279.994415,221.016571 
	C290.613861,219.358932 301.273651,217.783981 311.903900,216.030014 
	C325.329132,213.814896 338.730347,211.453888 352.533813,209.104980 
	C353.010376,217.853378 352.997253,226.655243 353.232941,235.450424 
	C353.315186,238.519257 351.554138,238.805481 349.252594,239.256607 
	C322.728241,244.455688 296.219452,249.734177 269.707672,254.997162 
	C261.738098,256.579254 253.771988,258.178741 245.404816,259.320068 
	C245.348892,248.322296 245.692413,237.774750 246.453415,227.154755 
	C253.799850,225.934814 260.728821,224.787323 267.657806,223.639832 
	C270.631683,223.085251 273.605560,222.530670 277.273163,221.911346 
	C278.656158,221.553177 279.345459,221.259750 280.034729,220.966324 
	C280.034729,220.966324 280.021637,221.019775 279.994415,221.016571 
z"/>
<path fill="#DAD9D6" opacity="1.000000" stroke="none" 
	d="
M246.035950,227.227203 
	C245.692413,237.774750 245.348892,248.322296 245.014313,259.320740 
	C235.558670,256.249847 226.061050,252.813934 216.637207,249.186310 
	C202.375381,243.696396 188.187744,238.013672 173.924606,232.527237 
	C164.522034,228.910461 161.275467,223.032883 163.559509,212.953674 
	C164.180328,210.214020 165.150635,207.553558 166.029297,204.486588 
	C175.791092,206.008011 185.484161,207.899597 195.805832,210.145889 
	C212.968292,216.076141 229.502121,221.651672 246.035950,227.227203 
z"/>
<path fill="#9DDAC7" opacity="1.000000" stroke="none" 
	d="
M298.246399,210.302475 
	C290.901947,212.995636 283.910492,215.534302 275.657654,218.530991 
	C279.840302,207.032227 280.864105,196.436783 274.264404,185.660782 
	C278.297211,184.317047 281.663239,183.192734 285.031219,182.074158 
	C287.710938,181.184174 290.394135,180.304626 293.073792,179.414383 
	C303.068115,176.094055 304.062805,176.487885 305.731903,187.035675 
	C306.468109,191.688126 306.188110,196.569260 305.834106,201.306564 
	C305.505798,205.700195 303.525116,209.262390 298.246399,210.302475 
z"/>
<path fill="#E8B34C" opacity="1.000000" stroke="none" 
	d="
M246.453415,227.154739 
	C229.502121,221.651672 212.968292,216.076141 196.180481,210.235641 
	C209.418472,212.433136 222.918411,214.852936 236.399780,217.372025 
	C246.636887,219.284897 256.850372,221.324066 267.366089,223.473450 
	C260.728821,224.787323 253.799850,225.934814 246.453415,227.154739 
z"/>
<path fill="#E8B34C" opacity="1.000000" stroke="none" 
	d="
M279.738892,220.939178 
	C279.345459,221.259750 278.656158,221.553177 277.679565,221.829559 
	C278.075867,221.512360 278.759491,221.212204 279.738892,220.939178 
z"/>
<path fill="#5C82B8" opacity="1.000000" stroke="none" 
	d="
M219.131927,254.219833 
	C219.540451,254.110840 220.135498,254.253738 220.931702,254.631012 
	C220.528061,254.734177 219.923233,254.602951 219.131927,254.219833 
z"/>
<path fill="#405A84" opacity="1.000000" stroke="none" 
	d="
M293.328918,254.830750 
	C294.871216,254.403244 296.413513,253.975723 298.352356,253.480103 
	C302.720276,262.266174 304.573303,271.400848 301.952881,280.980530 
	C301.515900,282.578003 300.449524,284.672668 299.117676,285.246674 
	C290.926788,288.776764 282.576050,291.936035 273.379639,295.574341 
	C274.732910,290.180054 275.862457,285.677551 277.450928,281.445099 
	C278.035797,283.403503 278.161713,285.091827 278.293579,286.860046 
	C279.107208,286.653107 279.317413,286.664276 279.400024,286.567047 
	C279.709625,286.202728 279.985077,285.808258 280.259857,285.415649 
	C283.693939,280.509430 289.466919,276.654419 287.216034,269.163116 
	C287.025604,268.529358 289.325775,266.633209 290.746460,266.163818 
	C292.398193,265.618134 294.528870,266.454193 296.130890,265.845825 
	C297.634003,265.275024 299.883667,263.483887 299.777344,262.435425 
	C299.399231,258.708435 298.506775,254.760986 293.328918,254.830750 
z"/>
<path fill="#000000" opacity="1.000000" stroke="none" 
	d="
M293.340149,254.815430 
	C298.506775,254.760986 299.399231,258.708435 299.777344,262.435425 
	C299.883667,263.483887 297.634003,265.275024 296.130890,265.845825 
	C294.528870,266.454193 292.398193,265.618134 290.746460,266.163818 
	C289.325775,266.633209 287.025604,268.529358 287.216034,269.163116 
	C289.466919,276.654419 283.693939,280.509430 280.259857,285.415649 
	C279.985077,285.808258 279.709625,286.202728 279.400024,286.567047 
	C279.317413,286.664276 279.107208,286.653107 278.293579,286.860046 
	C278.161713,285.091827 278.035797,283.403503 277.799622,281.314667 
	C276.601379,276.337158 275.761230,271.681335 274.338867,267.210754 
	C273.381409,264.201477 273.973083,262.470520 276.858002,261.390259 
	C282.193451,259.392395 287.517944,257.365387 293.113281,255.061127 
	C293.379517,254.771729 293.351349,254.800140 293.340149,254.815430 
z"/>
<path fill="#000000" opacity="1.000000" stroke="none" 
	d="
M303.461517,385.331390 
	C296.820557,387.324646 295.344604,386.270569 295.335999,379.986603 
	C295.333069,377.824402 294.791687,375.460663 295.494629,373.557800 
	C296.169586,371.730621 298.078186,369.193695 299.551636,369.120453 
	C301.414642,369.027832 304.420593,370.683350 305.107849,372.341522 
	C306.857574,376.563202 306.743866,381.101807 303.461517,385.331390 
z"/>
<path fill="#000000" opacity="1.000000" stroke="none" 
	d="
M234.978424,384.766357 
	C229.444092,387.722473 226.487061,386.364227 225.804825,380.708588 
	C225.511520,378.277100 225.201965,375.503387 226.084335,373.376617 
	C226.876205,371.467987 229.138367,369.316864 231.040466,368.998932 
	C232.485931,368.757355 235.676025,371.083221 235.832825,372.514008 
	C236.261368,376.424622 235.496475,380.465973 234.978424,384.766357 
z"/>
</svg>